<svg id="Layer_1" data-name="Layer 1" xmlns="http://www.w3.org/2000/svg" viewBox="0 0 887.47 176.12"><defs><style>.cls-1{fill:#fff;}.cls-2{fill:#65b597;}</style></defs><path class="cls-1" d="M190.35,140.25v-9.41a10.38,10.38,0,0,0,7.42-2.64,19.92,19.92,0,0,0,4.62-7q1.81-4.36,3.8-9.82L239,21.78h8.91L283.74,113c.66,1.88,1.54,4.51,2.64,7.92a34.55,34.55,0,0,1,1.81,8.91l5.45-.33c1.76-.11,3.3-.16,4.62-.16v10.89H256.18v-9.08q5.11,0,6.93-2.14a7.49,7.49,0,0,0,1.57-5.61,23.22,23.22,0,0,0-1.73-7.1l-4.13-11.22-38.28.66-3.63,11.06q-1,2.81-2.31,6.35c-.88,2.37-1.76,4.48-2.64,6.35l6.52-.33c2.36-.1,4.26-.16,5.69-.16v11.22Zm33.82-45h31L246.28,71q-2-5.61-3.71-11.3t-2.89-10.48h-.33q-1,3.3-2.39,8.58t-3.88,12Z" transform="translate(0 -8.85)"/><path class="cls-1" d="M301.23,131.5c3.19,0,5.44-.68,6.76-2.06a10.09,10.09,0,0,0,2.48-5.86A66.92,66.92,0,0,0,311,115V84c0-2,.06-4.06.17-6.27s.27-4.45.49-6.76q-2.81.17-6.1.25c-2.2,0-4,.14-5.45.24V60.88h6.11a33.75,33.75,0,0,0,11.05-1.56,19.16,19.16,0,0,0,6.27-3.22h6.93a55,55,0,0,1,.5,6.27q.17,4.29.16,8.58a56.68,56.68,0,0,1,7.92-8.5,33.5,33.5,0,0,1,8.5-5.44,22.26,22.26,0,0,1,9-1.9,15.31,15.31,0,0,1,9.32,3q4.05,3,4.05,9.57a11.76,11.76,0,0,1-1.07,4.62A9.36,9.36,0,0,1,359.47,78,10.85,10.85,0,0,1,353,75.82q-3.06-2.23-3.22-7.18a11.52,11.52,0,0,0-7.18,2.47,32.25,32.25,0,0,0-6.68,6.44,33.53,33.53,0,0,0-4.62,7.75l.16,31.35q0,2.64-.16,6.36t-.5,7.17c1.76-.22,3.63-.35,5.61-.41s3.63-.08,4.95-.08v10.56H301.23Z" transform="translate(0 -8.85)"/><path class="cls-1" d="M407,142.89a35,35,0,0,1-9-1.16,19.21,19.21,0,0,1-7.92-4.29,21.41,21.41,0,0,1-5.69-9.32q-2.16-6.18-2.15-16.42l.33-42.57-11.71.17V57.75a17.66,17.66,0,0,0,9.57-3.38,30.92,30.92,0,0,0,8.08-8.5,31.13,31.13,0,0,0,4.62-11.22H403.2L403,57.75H426.3V68.31L403,68.8l-.16,42.41a43.85,43.85,0,0,0,.9,9.16,13.55,13.55,0,0,0,3.3,6.68,8.65,8.65,0,0,0,6.52,2.47,16.72,16.72,0,0,0,7.18-2q4-2,8.16-7.92l6.77,6.11a41,41,0,0,1-8.5,9.73,35.19,35.19,0,0,1-8.41,5.12,26.89,26.89,0,0,1-7.18,2Q408.48,142.89,407,142.89Z" transform="translate(0 -8.85)"/><path class="cls-1" d="M454.34,185a15.59,15.59,0,0,1-10.06-3.3,11,11,0,0,1-4.13-9.07,10.39,10.39,0,0,1,2.64-7,9,9,0,0,1,6.77-3.22,6.94,6.94,0,0,1,5.86,2.39,9.11,9.11,0,0,1,2.22,6.19V172a5.09,5.09,0,0,1-.16,1.24h1.15a7.14,7.14,0,0,0,3.55-2.39,22.57,22.57,0,0,0,3.55-5.53,94.45,94.45,0,0,0,4.12-9.32q2.14-5.53,4.13-12.3L448.07,90.42a116.91,116.91,0,0,1-6-14.19A79.79,79.79,0,0,1,439.82,68l-7.59.33V57.75H471v8.74h-.33q-6.27.49-6.93,4.71t2.14,10.31L483.22,120q2.31-6.44,5.2-15.84t6.51-19.8c.55-1.75,1.24-3.71,2.07-5.85s1.67-4.21,2.55-6.19a17.58,17.58,0,0,1,2.64-4.46l-10.06.5V57.75h28.21v8.74a14.45,14.45,0,0,0-8.66,6.69,70.18,70.18,0,0,0-6,12.95L485,144.54q-4.78,13.53-8.91,22.52T467,180.51A18.37,18.37,0,0,1,454.34,185Z" transform="translate(0 -8.85)"/><path class="cls-1" d="M521.17,140.25V131.5c3.19,0,5.47-.68,6.85-2.06a9.82,9.82,0,0,0,2.55-5.86,66.8,66.8,0,0,0,.5-8.58V43.72q0-2.8.16-6.18t.5-7c-1.87.11-3.91.23-6.11.33s-4.07.23-5.61.33V20.46a84.41,84.41,0,0,0,12.38-.74,33.08,33.08,0,0,0,7.51-1.9,15.63,15.63,0,0,0,3.87-2.15h7.59V91.9h7.43l14.68-16.17c1.54-1.65,2.89-3.1,4-4.37a24.34,24.34,0,0,1,3.54-3.22l-9.57.17V57.75h34.65v8.74a27.31,27.31,0,0,0-10.23,2.89,38.21,38.21,0,0,0-8.08,5.53q-3.47,3.14-6.11,5.94L570.5,93.39a17.29,17.29,0,0,1,5,3.46,66.78,66.78,0,0,1,5.52,6.27l11.22,14.69q1,1.16,2.73,3.38t4,4.62a23.41,23.41,0,0,0,4.86,4,9.89,9.89,0,0,0,5.28,1.65v8.75H591.46a12.66,12.66,0,0,1-9.16-4,100.76,100.76,0,0,1-9-10.65q-3.3-4.62-6.6-9.32t-6-8.58q-2.73-3.87-4.54-6l-4.79.16v14.85q0,2.64-.16,6.36t-.5,7.17c1.76-.22,3.63-.35,5.61-.41s3.69-.08,5.12-.08v10.56Z" transform="translate(0 -8.85)"/><path class="cls-1" d="M615.05,131.5c3.19,0,5.45-.68,6.77-2.06a10.09,10.09,0,0,0,2.47-5.86,66.8,66.8,0,0,0,.5-8.58V84c0-2,.05-4.06.16-6.27s.28-4.45.5-6.76q-2.81.17-6.11.25c-2.2,0-4,.14-5.44.24V60.88H620a33.81,33.81,0,0,0,11.06-1.56,19.16,19.16,0,0,0,6.27-3.22h6.93a55.55,55.55,0,0,1,.49,6.27q.16,4.29.17,8.58a56.68,56.68,0,0,1,7.92-8.5,33.5,33.5,0,0,1,8.5-5.44,22.26,22.26,0,0,1,9-1.9,15.33,15.33,0,0,1,9.32,3q4.05,3,4,9.57a11.58,11.58,0,0,1-1.07,4.62A9.33,9.33,0,0,1,673.3,78a10.88,10.88,0,0,1-6.52-2.22q-3.06-2.23-3.22-7.18a11.49,11.49,0,0,0-7.17,2.47,32,32,0,0,0-6.69,6.44,33.53,33.53,0,0,0-4.62,7.75l.17,31.35q0,2.64-.17,6.36t-.49,7.17c1.76-.22,3.63-.35,5.61-.41s3.63-.08,4.95-.08v10.56h-40.1Z" transform="translate(0 -8.85)"/><path class="cls-1" d="M734.68,140.25a28.39,28.39,0,0,1-.58-4.21c-.06-1.15-.14-2.5-.25-4a37.19,37.19,0,0,1-12,8.25,33.9,33.9,0,0,1-13.12,2.64q-11.22,0-17.24-6.11a20.5,20.5,0,0,1-6-15,21.29,21.29,0,0,1,4.29-13.45A32.9,32.9,0,0,1,701,99.25a64.79,64.79,0,0,1,15.34-5.45A83.59,83.59,0,0,1,733,91.74V82.66A34.5,34.5,0,0,0,732,73.84a12.41,12.41,0,0,0-3.88-6.44Q725.28,65,719.83,65a23.58,23.58,0,0,0-7.34,1.57A12.39,12.39,0,0,0,706.63,71a6.68,6.68,0,0,1,1.65,3.22,16.49,16.49,0,0,1,.33,3,10.71,10.71,0,0,1-2.31,6.19q-2.31,3.21-7.43,3A8.71,8.71,0,0,1,692,83.32a10.92,10.92,0,0,1-2.4-7.09,15.28,15.28,0,0,1,4.54-11,31,31,0,0,1,12.29-7.43,52.21,52.21,0,0,1,17.33-2.72q14.19,0,21.78,7.42T753,86.29V96.77c0,3.14,0,6.27-.08,9.41s-.08,6.62-.08,10.47c0,1.65-.06,3.72-.17,6.19s-.27,4.93-.49,7.34c2-.22,4-.35,6-.41s3.71-.14,5-.25v10.73Zm-1.82-38.78a53.21,53.21,0,0,0-9.73,1.57,35.54,35.54,0,0,0-8.58,3.38,17.77,17.77,0,0,0-6,5.37,11.68,11.68,0,0,0-2.07,7.34q.16,5.12,3.3,7.51A11.66,11.66,0,0,0,717,129a18.82,18.82,0,0,0,8.67-2,28.46,28.46,0,0,0,7.17-5.28v-20.3Z" transform="translate(0 -8.85)"/><path class="cls-1" d="M780.22,53.46q0-19.47,8.08-28.79t23.43-9.33a27.28,27.28,0,0,1,10.81,1.9,16.07,16.07,0,0,1,6.68,5,11.42,11.42,0,0,1,2.31,6.93A10.72,10.72,0,0,1,829.22,36a8,8,0,0,1-6.76,3q-4.46.16-6.77-2.48a8.75,8.75,0,0,1-2.31-5.94,9.2,9.2,0,0,1,.17-1.81c.11-.55.22-1.16.33-1.82a4.5,4.5,0,0,0-2.23-1.4,9.36,9.36,0,0,0-2.56-.41,7.2,7.2,0,0,0-5.44,2.06,10.36,10.36,0,0,0-2.64,5,28.84,28.84,0,0,0-.66,6.27V57.75H820V68.31l-19.63.49.16,47.69q0,2.64-.08,6.43a61.71,61.71,0,0,1-.58,7.26c1.87-.22,3.88-.35,6-.41s3.88-.08,5.2-.08v10.56H770.48V131.5c3.19,0,5.47-.68,6.85-2.06a9.83,9.83,0,0,0,2.56-5.86,66.92,66.92,0,0,0,.49-8.58l-.16-45.87-12.54.17V57.75h12.54Z" transform="translate(0 -8.85)"/><path class="cls-1" d="M858.76,142.89a35.15,35.15,0,0,1-9-1.16,19.34,19.34,0,0,1-7.92-4.29,21.6,21.6,0,0,1-5.69-9.32Q834,121.94,834,111.7l.33-42.57-11.72.17V57.75a17.63,17.63,0,0,0,9.57-3.38,30.81,30.81,0,0,0,8.09-8.5,31.13,31.13,0,0,0,4.62-11.22H855l-.16,23.1h23.26V68.31l-23.26.49-.17,42.41a43.16,43.16,0,0,0,.91,9.16,13.38,13.38,0,0,0,3.3,6.68,8.62,8.62,0,0,0,6.52,2.47,16.68,16.68,0,0,0,7.17-2q4.05-2,8.17-7.92l6.77,6.11a41.21,41.21,0,0,1-8.5,9.73,35.24,35.24,0,0,1-8.42,5.12,26.84,26.84,0,0,1-7.17,2C861.28,142.78,859.75,142.89,858.76,142.89Z" transform="translate(0 -8.85)"/><polygon class="cls-2" points="0 170.5 31 125.68 31 170.5 0 170.5"/><polygon class="cls-2" points="41.09 144.36 41.09 111.49 92.26 39.03 132.22 123.44 41.09 144.73 41.09 144.36"/><polygon class="cls-2" points="136.14 107.2 98.79 28.76 108.13 9.71 145.11 9.71 136.14 107.2"/><polygon class="cls-2" points="151.83 48.56 154.44 20.92 170.13 48.56 151.83 48.56"/><polygon class="cls-2" points="59.2 68.35 86.09 30.25 39.41 0 59.2 68.35"/><polyline class="cls-2" points="51.73 79.18 38.66 33.99 3.55 33.99 48.37 83.67"/></svg>